<?xml version="1.0" encoding="UTF-8" standalone="no"?>
<!DOCTYPE svg PUBLIC "-//W3C//DTD SVG 1.1//EN"
 "http://www.w3.org/Graphics/SVG/1.1/DTD/svg11.dtd">
<!-- Generated by graphviz version 14.1.4 (0)
 -->
<!-- Title: ERD Pages: 1 -->
<svg width="340pt" height="208pt"
 viewBox="0.00 0.00 340.00 208.00" xmlns="http://www.w3.org/2000/svg" xmlns:xlink="http://www.w3.org/1999/xlink">
<g id="graph0" class="graph" transform="scale(1 1) rotate(0) translate(36 171.6)">
<title>ERD</title>
<!-- aoa.demo.model.access_cascade.entities.cascade_boundary_entity.CascadeBoundaryEntity -->
<g id="node1" class="node">
<title>aoa.demo.model.access_cascade.entities.cascade_boundary_entity.CascadeBoundaryEntity</title>
<path fill="white" stroke="none" d="M12,0C12,0 256.27,0 256.27,0 262.27,0 268.27,-6 268.27,-12 268.27,-12 268.27,-54.8 268.27,-54.8 268.27,-60.8 262.27,-66.8 256.27,-66.8 256.27,-66.8 12,-66.8 12,-66.8 6,-66.8 0,-60.8 0,-54.8 0,-54.8 0,-12 0,-12 0,-6 6,0 12,0"/>
<polygon fill="#3b82f6" stroke="none" points="1,-43.4 1,-65.8 267.27,-65.8 267.27,-43.4 1,-43.4"/>
<text xml:space="preserve" text-anchor="start" x="64.78" y="-52" font-family="Helvetica,sans-Serif" font-weight="bold" font-size="12.00" fill="white">CascadeBoundaryEntity</text>
<polygon fill="#fef9c3" stroke="none" points="1,-22.2 1,-43.4 29,-43.4 29,-22.2 1,-22.2"/>
<text xml:space="preserve" text-anchor="start" x="8.75" y="-31.1" font-family="Helvetica,sans-Serif" font-weight="bold" font-size="9.00">PK</text>
<polygon fill="#fef9c3" stroke="none" points="29,-22.2 29,-43.4 111,-43.4 111,-22.2 29,-22.2"/>
<text xml:space="preserve" text-anchor="start" x="33" y="-28.4" font-family="Helvetica,sans-Serif" font-size="11.00">id</text>
<polygon fill="#fef9c3" stroke="none" points="111,-22.2 111,-43.4 267.27,-43.4 267.27,-22.2 111,-22.2"/>
<text xml:space="preserve" text-anchor="start" x="115" y="-30.5" font-family="Helvetica,sans-Serif" font-style="italic" font-size="11.00" fill="#64748b">str</text>
<polygon fill="#dbeafe" stroke="none" points="1,-1 1,-22.2 29,-22.2 29,-1 1,-1"/>
<text xml:space="preserve" text-anchor="start" x="9" y="-9.9" font-family="Helvetica,sans-Serif" font-weight="bold" font-size="9.00">FK</text>
<polygon fill="#dbeafe" stroke="none" points="29,-1 29,-22.2 111,-22.2 111,-1 29,-1"/>
<text xml:space="preserve" text-anchor="start" x="33" y="-7.2" font-family="Helvetica,sans-Serif" font-size="11.00">peer_boundary</text>
<polygon fill="#dbeafe" stroke="none" points="111,-1 111,-22.2 267.27,-22.2 267.27,-1 111,-1"/>
<text xml:space="preserve" text-anchor="start" x="115" y="-9.3" font-family="Helvetica,sans-Serif" font-style="italic" font-size="11.00" fill="#64748b">FK &#45;&gt; CascadeBoundaryEntity</text>
<path fill="none" stroke="#3b82f6" d="M12,0C12,0 256.27,0 256.27,0 262.27,0 268.27,-6 268.27,-12 268.27,-12 268.27,-54.8 268.27,-54.8 268.27,-60.8 262.27,-66.8 256.27,-66.8 256.27,-66.8 12,-66.8 12,-66.8 6,-66.8 0,-60.8 0,-54.8 0,-54.8 0,-12 0,-12 0,-6 6,0 12,0"/>
</g>
<!-- aoa.demo.model.access_cascade.entities.cascade_boundary_entity.CascadeBoundaryEntity&#45;&gt;aoa.demo.model.access_cascade.entities.cascade_boundary_entity.CascadeBoundaryEntity -->
<g id="edge1" class="edge">
<title>aoa.demo.model.access_cascade.entities.cascade_boundary_entity.CascadeBoundaryEntity&#45;&gt;aoa.demo.model.access_cascade.entities.cascade_boundary_entity.CascadeBoundaryEntity</title>
<path fill="none" stroke="#94a3b8" d="M91.82,-66.67C73.14,-95.01 87.24,-124.8 134.14,-124.8 177,-124.8 192.47,-99.91 180.54,-73.99"/>
<polygon fill="#94a3b8" stroke="#94a3b8" points="182.74,-72.91 177.19,-67.99 178.47,-75.3 182.74,-72.91"/>
<text xml:space="preserve" text-anchor="middle" x="134.14" y="-127.5" font-family="Helvetica,sans-Serif" font-size="9.00">peer_boundary (one)</text>
</g>
</g>
</svg>
